<?xml version="1.0" standalone="no"?>
<!DOCTYPE svg PUBLIC "-//W3C//DTD SVG 20010904//EN"
 "http://www.w3.org/TR/2001/REC-SVG-20010904/DTD/svg10.dtd">
<svg version="1.0" xmlns="http://www.w3.org/2000/svg"
 width="640.000000pt" height="480.000000pt" viewBox="0 0 640.000000 480.000000"
 preserveAspectRatio="xMidYMid meet">

<g transform="translate(0.000000,480.000000) scale(0.100000,-0.100000)"
fill="#000000" stroke="none">
<path d="M2260 4370 l0 -60 30 0 c34 0 70 31 70 60 0 29 -36 60 -70 60 l-30 0
0 -60z m61 40 c42 -23 16 -90 -35 -90 -12 0 -16 11 -16 50 0 53 10 61 51 40z"/>
<path d="M2519 4414 c-3 -10 -2 -37 1 -59 4 -34 9 -40 30 -42 14 -1 18 0 8 3
-13 4 -18 16 -18 40 0 25 4 34 18 35 13 0 14 2 2 6 -8 4 -20 13 -26 21 -9 13
-12 12 -15 -4z"/>
<path d="M2700 4371 c0 -57 1 -59 28 -59 34 0 52 14 52 43 0 27 -24 49 -45 41
-10 -4 -15 1 -15 14 0 11 -4 20 -10 20 -6 0 -10 -26 -10 -59z m64 -4 c8 -12 7
-21 -6 -33 -20 -20 -38 -11 -38 20 0 39 23 46 44 13z"/>
<path d="M3387 4410 c-9 -11 -12 -20 -7 -20 6 0 11 -19 12 -42 1 -41 1 -41 5
-8 2 19 11 41 20 48 15 11 15 12 -3 12 -19 1 -19 1 0 15 15 11 16 15 5 15 -8
0 -22 -9 -32 -20z"/>
<path d="M3506 4408 c-9 -12 -16 -29 -16 -38 0 -27 30 -60 55 -60 32 0 55 25
55 60 0 56 -64 82 -94 38z m61 4 c12 -8 18 -31 15 -64 -2 -22 -39 -33 -57 -18
-18 15 -20 61 -3 78 14 14 28 15 45 4z"/>
<path d="M2908 4409 c-2 -7 -1 -30 2 -53 4 -35 9 -41 30 -43 14 -1 18 0 8 3
-13 4 -18 16 -18 39 0 24 5 35 18 38 16 4 16 5 0 6 -10 0 -18 6 -18 11 0 14
-17 13 -22 -1z"/>
<path d="M3728 4409 c-2 -7 -1 -30 2 -53 4 -35 9 -41 30 -43 14 -1 18 0 8 3
-13 4 -18 16 -18 39 0 24 5 35 18 38 16 4 16 5 0 6 -10 0 -18 6 -18 11 0 14
-17 13 -22 -1z"/>
<path d="M2380 4355 c0 -25 5 -45 10 -45 6 0 10 20 10 45 0 25 -4 45 -10 45
-5 0 -10 -20 -10 -45z"/>
<path d="M2437 4393 c-15 -14 -6 -34 19 -43 28 -11 23 -35 -7 -27 -11 3 -19 1
-19 -4 0 -14 46 -11 59 5 12 15 2 27 -32 39 -24 9 -11 30 14 24 11 -3 19 -1
19 4 0 10 -43 12 -53 2z"/>
<path d="M2580 4353 c0 -23 5 -43 10 -43 6 0 10 13 10 29 0 19 8 35 21 45 21
14 21 15 -10 14 -30 -1 -31 -3 -31 -45z"/>
<path d="M2650 4355 c0 -25 5 -45 10 -45 6 0 10 20 10 45 0 25 -4 45 -10 45
-5 0 -10 -20 -10 -45z"/>
<path d="M2814 4360 c1 -44 2 -45 34 -46 32 -1 32 -1 30 45 -1 35 -2 39 -5 14
-5 -35 -29 -62 -43 -47 -5 5 -11 25 -13 44 -3 27 -4 25 -3 -10z"/>
<path d="M2980 4355 c0 -25 5 -45 10 -45 6 0 10 20 10 45 0 25 -4 45 -10 45
-5 0 -10 -20 -10 -45z"/>
<path d="M3030 4386 c-28 -35 11 -93 48 -70 35 22 22 84 -18 84 -10 0 -23 -7
-30 -14z m54 -19 c8 -12 7 -21 -6 -33 -20 -20 -38 -11 -38 20 0 39 23 46 44
13z"/>
<path d="M3132 4351 c1 -35 2 -39 5 -14 5 35 29 62 43 47 5 -5 11 -25 13 -44
3 -27 4 -25 3 10 -1 44 -2 45 -33 46 -33 1 -33 1 -31 -45z"/>
<path d="M3290 4386 c-28 -35 11 -93 48 -70 35 22 22 84 -18 84 -10 0 -23 -7
-30 -14z m54 -19 c8 -13 6 -21 -7 -34 -17 -17 -19 -17 -32 1 -10 14 -11 24 -4
38 12 22 27 20 43 -5z"/>
<path d="M3634 4360 c1 -44 2 -45 34 -46 32 -1 32 -1 30 45 -1 35 -2 39 -5 14
-5 -35 -29 -62 -43 -47 -5 5 -11 25 -13 44 -3 27 -4 25 -3 -10z"/>
<path d="M3806 4384 c-19 -18 -20 -28 -6 -55 11 -20 60 -27 60 -8 0 5 -4 8 -9
5 -17 -11 -41 6 -41 29 0 23 24 40 41 29 5 -3 9 0 9 5 0 17 -37 13 -54 -5z"/>
<path d="M3889 4379 c-16 -31 3 -69 36 -69 17 0 29 8 36 24 15 32 -4 66 -36
66 -15 0 -29 -9 -36 -21z m56 -25 c0 -22 -5 -29 -20 -29 -24 0 -34 43 -13 56
21 14 33 4 33 -27z"/>
<path d="M3990 4354 c0 -54 18 -59 22 -6 2 25 8 37 18 37 10 0 16 -12 18 -37
2 -21 7 -38 12 -38 5 0 10 17 12 38 4 52 31 50 39 -3 l7 -40 -2 45 -1 45 -62
1 -63 1 0 -43z"/>
<path d="M4162 4388 c-29 -29 -7 -78 34 -78 13 0 25 4 28 8 2 4 -7 8 -21 7
-14 0 -28 6 -30 13 -3 8 6 12 26 12 19 0 31 5 31 13 0 18 -21 37 -40 37 -9 0
-21 -5 -28 -12z m48 -13 c11 -13 8 -15 -20 -15 -28 0 -31 2 -20 15 7 8 16 15
20 15 4 0 13 -7 20 -15z"/>
<path d="M4254 4385 c-8 -20 4 -35 27 -35 11 0 19 -7 19 -16 0 -12 -7 -15 -25
-12 -14 3 -25 1 -25 -4 0 -5 15 -8 32 -6 42 4 51 34 14 48 -32 12 -33 27 -3
33 19 4 18 4 -6 6 -16 0 -30 -5 -33 -14z"/>
<path d="M800 3956 l0 -265 -27 -4 -28 -4 28 -2 27 -1 0 -389 0 -390 -27 -4
-28 -4 28 -2 27 -1 0 -389 0 -390 -27 -4 -28 -4 28 -2 27 -1 0 -389 0 -390
-27 -4 -28 -4 28 -2 27 -1 0 -389 0 -390 -27 -4 c-16 -2 65 -5 179 -6 l207 -1
4 -27 4 -28 2 28 1 27 319 0 320 0 4 -27 4 -28 2 28 1 27 319 0 320 0 4 -27 4
-28 2 28 1 27 324 0 325 0 4 -28 4 -27 2 28 1 27 319 0 320 0 4 -28 4 -27 2
28 1 27 319 0 320 0 4 -28 4 -27 2 28 1 27 324 0 325 0 4 -27 4 -28 2 28 1 27
319 0 320 0 4 -27 4 -28 2 28 c0 17 7 27 16 27 13 0 15 212 15 1850 l0 1850
-2485 0 -2485 0 0 -264z m4960 -1586 l0 -1840 -115 0 c-96 0 -115 3 -115 15 0
13 -21 15 -130 15 -109 0 -130 -2 -130 -15 0 -10 -10 -15 -30 -15 l-30 0 0
115 0 115 -130 0 -130 0 0 -115 0 -115 -35 0 -35 0 0 435 0 435 -130 0 -130 0
0 -435 0 -435 -35 0 -35 0 0 1000 0 1000 -130 0 -130 0 0 -1000 0 -1000 -30 0
-30 0 0 1565 0 1565 -130 0 -130 0 0 -1565 0 -1565 -35 0 -35 0 0 1760 0 1760
-130 0 -130 0 0 -1760 0 -1760 -35 0 -35 0 0 1465 0 1465 -130 0 -130 0 0
-1465 0 -1465 -30 0 -30 0 0 915 0 915 -130 0 -130 0 0 -915 0 -915 -35 0 -35
0 0 430 0 430 -130 0 -130 0 0 -430 0 -430 -35 0 -35 0 0 150 0 150 -130 0
-130 0 0 -150 0 -150 -30 0 c-28 0 -30 3 -30 35 l0 35 -130 0 -130 0 0 -32 0
-33 -600 -4 -600 -3 0 1841 0 1841 2475 0 2475 0 0 -1840z"/>
<path d="M422 3718 c-17 -17 -15 -63 4 -79 22 -18 48 0 52 35 6 45 -29 71 -56
44z m38 -18 c11 -21 -2 -60 -20 -60 -13 0 -22 37 -15 60 3 11 10 20 15 20 5 0
14 -9 20 -20z"/>
<path d="M536 3722 c-3 -6 2 -8 14 -5 34 9 36 -24 4 -58 l-28 -29 40 1 c31 2
34 3 10 6 l-28 5 22 23 c12 13 20 31 18 42 -3 19 -42 30 -52 15z"/>
<path d="M632 3718 c-17 -17 -15 -63 4 -79 22 -18 48 0 52 35 6 45 -29 71 -56
44z m43 -18 c8 -26 -3 -60 -20 -60 -17 0 -28 34 -20 60 3 11 12 20 20 20 8 0
17 -9 20 -20z"/>
<path d="M490 3640 c0 -5 5 -10 10 -10 6 0 10 5 10 10 0 6 -4 10 -10 10 -5 0
-10 -4 -10 -10z"/>
<path d="M422 2928 c-17 -17 -15 -63 4 -79 22 -18 48 0 52 35 6 45 -29 71 -56
44z m38 -18 c11 -21 -2 -60 -20 -60 -13 0 -22 37 -15 60 3 11 10 20 15 20 5 0
14 -9 20 -20z"/>
<path d="M540 2929 c0 -5 5 -7 10 -4 6 4 10 -10 10 -34 0 -22 -5 -42 -12 -44
-7 -3 3 -5 22 -5 19 0 29 2 23 5 -8 3 -13 23 -13 49 0 37 -3 44 -20 44 -11 0
-20 -5 -20 -11z"/>
<path d="M630 2921 c0 -11 9 -21 21 -24 28 -8 21 -39 -11 -48 l-25 -7 26 -1
c49 -2 65 54 19 66 -27 7 -25 21 3 26 19 4 18 4 -5 6 -21 1 -28 -4 -28 -18z"/>
<path d="M490 2850 c0 -5 5 -10 10 -10 6 0 10 5 10 10 0 6 -4 10 -10 10 -5 0
-10 -4 -10 -10z"/>
<path d="M253 2697 c34 -14 35 -25 2 -33 -14 -3 -25 -10 -25 -15 0 -4 17 -1
37 8 28 11 42 12 55 4 12 -7 18 -8 18 -1 0 11 -84 51 -103 49 -7 -1 0 -6 16
-12z"/>
<path d="M223 2615 c-16 -18 0 -23 50 -17 26 3 37 9 36 21 0 10 -2 11 -6 4 -5
-15 -60 -18 -65 -4 -1 5 -8 3 -15 -4z"/>
<path d="M248 2563 c12 -2 32 -2 45 0 12 2 2 4 -23 4 -25 0 -35 -2 -22 -4z"/>
<path d="M228 2523 c18 -2 45 -2 60 0 15 2 0 4 -33 4 -33 0 -45 -2 -27 -4z"/>
<path d="M248 2483 c12 -2 32 -2 45 0 12 2 2 4 -23 4 -25 0 -35 -2 -22 -4z"/>
<path d="M240 2445 c-7 -8 -10 -21 -7 -29 4 -10 -2 -16 -16 -19 -12 -2 3 -5
33 -6 51 -1 56 1 57 21 4 43 -41 65 -67 33z m56 -16 c6 -10 -11 -29 -26 -29
-3 0 -11 4 -19 9 -17 11 -5 31 19 31 10 0 22 -5 26 -11z"/>
<path d="M237 2353 c-4 -3 -7 -16 -6 -27 0 -19 1 -19 11 4 l11 25 6 -25 c10
-36 46 -34 47 3 1 24 -3 27 -31 27 -17 0 -35 -3 -38 -7z m58 -21 c0 -18 -20
-15 -23 4 -3 10 1 15 10 12 7 -3 13 -10 13 -16z"/>
<path d="M234 2266 c-3 -8 -3 -19 0 -25 4 -5 -4 -12 -16 -14 -13 -2 2 -5 33
-6 55 -1 56 -1 55 27 -1 23 -6 27 -34 30 -22 2 -34 -2 -38 -12z m61 -16 c0
-18 -33 -26 -47 -12 -6 6 -7 15 -3 22 10 16 50 8 50 -10z"/>
<path d="M234 2176 c-12 -30 4 -47 38 -44 28 2 33 7 33 28 0 21 -5 26 -33 28
-22 2 -34 -2 -38 -12z m61 -16 c0 -18 -33 -26 -47 -12 -6 6 -7 15 -3 22 10 16
50 8 50 -10z"/>
<path d="M422 2138 c-17 -17 -15 -63 4 -79 22 -18 48 0 52 35 6 45 -29 71 -56
44z m38 -18 c11 -21 -2 -60 -20 -60 -5 0 -12 9 -15 20 -7 23 2 60 15 60 5 0
14 -9 20 -20z"/>
<path d="M540 2139 c0 -5 5 -7 10 -4 6 4 10 -10 10 -34 0 -22 -5 -42 -12 -44
-7 -3 3 -5 22 -5 19 0 29 2 23 5 -8 3 -13 23 -13 49 0 37 -3 44 -20 44 -11 0
-20 -5 -20 -11z"/>
<path d="M632 2138 c-17 -17 -15 -63 4 -79 22 -18 48 0 52 35 6 45 -29 71 -56
44z m43 -18 c8 -26 -3 -60 -20 -60 -17 0 -28 34 -20 60 3 11 12 20 20 20 8 0
17 -9 20 -20z"/>
<path d="M233 2101 c1 -18 7 -21 42 -20 33 2 35 3 10 6 -16 2 -35 11 -42 20
-10 13 -12 13 -10 -6z"/>
<path d="M217 2064 c-4 -4 -7 -20 -7 -36 0 -27 2 -28 50 -28 28 0 50 5 50 10
0 6 -9 10 -19 10 -13 0 -21 8 -23 23 -3 22 -36 36 -51 21z m43 -29 c0 -8 -9
-15 -20 -15 -11 0 -20 7 -20 15 0 8 9 15 20 15 11 0 20 -7 20 -15z"/>
<path d="M490 2060 c0 -5 5 -10 10 -10 6 0 10 5 10 10 0 6 -4 10 -10 10 -5 0
-10 -4 -10 -10z"/>
<path d="M422 1348 c-17 -17 -15 -63 4 -79 22 -18 48 0 52 35 6 45 -29 71 -56
44z m38 -18 c11 -21 -2 -60 -20 -60 -13 0 -22 37 -15 60 3 11 10 20 15 20 5 0
14 -9 20 -20z"/>
<path d="M542 1348 c-17 -17 -15 -63 4 -79 22 -18 48 0 52 35 6 45 -29 71 -56
44z m43 -18 c7 -23 -2 -60 -15 -60 -18 0 -31 39 -20 60 6 11 15 20 20 20 5 0
12 -9 15 -20z"/>
<path d="M630 1341 c0 -11 9 -21 21 -24 28 -8 21 -39 -11 -48 l-25 -7 26 -1
c49 -2 65 54 19 66 -27 7 -25 21 3 26 19 4 18 4 -5 6 -21 1 -28 -4 -28 -18z"/>
<path d="M490 1270 c0 -5 5 -10 10 -10 6 0 10 5 10 10 0 6 -4 10 -10 10 -5 0
-10 -4 -10 -10z"/>
<path d="M422 558 c-17 -17 -15 -63 4 -79 22 -18 48 0 52 35 6 45 -29 71 -56
44z m38 -18 c11 -21 -2 -60 -20 -60 -5 0 -12 9 -15 20 -7 23 2 60 15 60 5 0
14 -9 20 -20z"/>
<path d="M542 558 c-17 -17 -15 -63 4 -79 22 -18 48 0 52 35 6 45 -29 71 -56
44z m43 -18 c7 -23 -2 -60 -15 -60 -18 0 -31 39 -20 60 6 11 15 20 20 20 5 0
12 -9 15 -20z"/>
<path d="M632 558 c-17 -17 -15 -63 4 -79 22 -18 48 0 52 35 6 45 -29 71 -56
44z m43 -18 c8 -26 -3 -60 -20 -60 -17 0 -28 34 -20 60 3 11 12 20 20 20 8 0
17 -9 20 -20z"/>
<path d="M490 480 c0 -5 5 -10 10 -10 6 0 10 5 10 10 0 6 -4 10 -10 10 -5 0
-10 -4 -10 -10z"/>
<path d="M1142 408 c-17 -17 -15 -63 4 -79 22 -18 48 0 52 35 6 45 -29 71 -56
44z m38 -18 c11 -21 -2 -60 -20 -60 -5 0 -12 9 -15 20 -7 23 2 60 15 60 5 0
14 -9 20 -20z"/>
<path d="M1786 412 c-3 -6 2 -8 13 -5 31 8 35 -17 7 -46 -34 -35 -33 -41 7
-40 25 1 27 3 9 6 l-24 5 22 23 c12 13 20 31 18 42 -3 19 -42 30 -52 15z"/>
<path d="M2461 394 c-26 -33 -26 -44 -1 -44 11 0 20 -7 20 -15 0 -21 18 -19
22 3 5 26 -3 82 -12 82 -5 0 -18 -12 -29 -26z m19 -14 c0 -11 -7 -20 -15 -20
-13 0 -13 3 -3 20 7 11 14 20 15 20 2 0 3 -9 3 -20z"/>
<path d="M3092 408 c-32 -32 1 -104 36 -81 25 15 21 46 -8 60 l-24 12 24 10
c22 9 23 10 5 10 -12 1 -26 -4 -33 -11z m40 -40 c7 -19 -2 -38 -18 -38 -8 0
-14 8 -14 18 0 30 23 44 32 20z"/>
<path d="M3749 413 c0 -5 -1 -26 -2 -48 -2 -37 0 -40 26 -43 31 -4 46 20 28
42 -9 10 -9 16 -1 21 8 5 8 11 -1 21 -12 15 -48 19 -50 7z m41 -18 c0 -8 -7
-15 -15 -15 -8 0 -15 7 -15 15 0 8 7 15 15 15 8 0 15 -7 15 -15z m8 -42 c5
-17 -26 -29 -40 -15 -6 6 -7 15 -3 22 9 14 37 9 43 -7z"/>
<path d="M4360 409 c0 -5 5 -7 10 -4 6 4 10 -10 10 -34 0 -22 -5 -42 -12 -44
-7 -3 3 -5 22 -5 19 0 27 2 18 5 -14 3 -18 15 -18 49 0 32 -4 44 -15 44 -8 0
-15 -5 -15 -11z"/>
<path d="M4434 395 c-10 -39 3 -75 26 -75 29 0 47 42 32 75 -7 15 -20 25 -32
25 -13 0 -22 -9 -26 -25z m41 -26 c0 -24 -5 -34 -15 -34 -16 0 -25 37 -16 62
10 26 31 8 31 -28z"/>
<path d="M5010 409 c0 -5 5 -7 10 -4 6 4 10 -10 10 -34 0 -22 -5 -42 -12 -44
-7 -3 3 -5 22 -5 19 0 27 2 18 5 -14 3 -18 15 -18 49 0 32 -4 44 -15 44 -8 0
-15 -5 -15 -11z"/>
<path d="M5080 412 c0 -6 8 -8 19 -5 31 8 35 -17 7 -46 -34 -35 -33 -41 7 -40
25 1 27 3 9 6 l-24 5 22 23 c29 30 23 59 -13 63 -15 2 -27 -1 -27 -6z"/>
<path d="M5670 409 c0 -5 5 -7 10 -4 6 4 10 -10 10 -34 0 -22 -5 -42 -12 -44
-7 -3 3 -5 22 -5 19 0 27 2 18 5 -14 3 -18 15 -18 49 0 32 -4 44 -15 44 -8 0
-15 -5 -15 -11z"/>
<path d="M5757 391 c-22 -37 -21 -41 3 -41 12 0 20 -7 20 -17 0 -15 2 -14 14
3 8 10 10 21 5 22 -5 2 -9 17 -9 33 0 37 -11 37 -33 0z m23 -11 c0 -11 -7 -20
-15 -20 -13 0 -14 4 -5 20 6 11 13 20 15 20 3 0 5 -9 5 -20z"/>
<path d="M2992 218 c-7 -7 -12 -24 -12 -38 0 -31 17 -50 45 -50 28 0 45 19 45
50 0 31 -17 50 -45 50 -12 0 -26 -5 -33 -12z m58 -18 c20 -38 -19 -77 -48 -48
-23 23 -7 68 25 68 7 0 17 -9 23 -20z"/>
<path d="M3168 218 c-9 -28 7 -83 25 -84 12 -1 13 -1 2 3 -22 7 -20 63 3 64
13 0 14 2 2 6 -8 3 -18 10 -21 15 -3 5 -8 4 -11 -4z"/>
<path d="M3083 175 c2 -36 5 -40 30 -41 25 -1 27 1 26 40 l-2 41 -6 -35 c-4
-22 -12 -35 -21 -35 -9 0 -18 13 -22 35 l-6 35 1 -40z"/>
<path d="M3232 198 c-27 -27 -2 -74 35 -65 15 4 14 5 -3 6 -41 2 -41 56 -1 64
21 4 21 4 2 6 -12 0 -26 -4 -33 -11z"/>
<path d="M3304 196 c-3 -8 -4 -25 -2 -38 2 -17 9 -23 28 -23 22 0 25 4 25 35
0 29 -4 36 -23 38 -13 2 -24 -3 -28 -12z m41 -26 c0 -13 -6 -25 -12 -27 -16
-6 -27 21 -19 43 9 23 31 11 31 -16z"/>
<path d="M3380 169 c0 -47 17 -52 22 -7 4 46 28 49 28 4 0 -44 18 -48 22 -4 4
46 28 49 28 4 0 -20 5 -36 10 -36 13 0 13 40 0 60 -6 10 -27 15 -60 16 l-50 2
0 -39z"/>
<path d="M3524 196 c-12 -32 0 -61 29 -64 15 -2 27 1 27 6 0 5 -10 8 -21 8
-12 -1 -24 5 -26 12 -3 8 6 12 27 12 28 0 30 2 20 20 -12 23 -48 27 -56 6z
m41 -6 c3 -5 -3 -10 -15 -10 -12 0 -18 5 -15 10 3 6 10 10 15 10 5 0 12 -4 15
-10z"/>
</g>
</svg>
